# xmcd
#
# Track frame offsets: 
#        150
#        17327
#        34520
#        69915
#        118745
#
# Disc length: 2072 seconds
#
# Revision: 1
# Processed by: cddbd v1.4PL0 Copyright (c) Steve Scherf et al.
# Submitted via: ExactAudioCopy v0.90b4
#
DISCID=31081605
DTITLE=Wayne G featuring Stewart Who? - Twisted
DYEAR=1998
DGENRE=Dance
TTITLE0=Twisted (Betty Ford Radio Edit)
TTITLE1=Twisted (Do You F*** as Good as You Dance Edit)
TTITLE2=Twisted (6am Warriors Mix)
TTITLE3=Twisted (Danny Tenaglia's Club Mix)
TTITLE4=Twisted (Sharp Remix)
EXTD=Submitted by The Dog
EXTT0=
EXTT1=
EXTT2=
EXTT3=
EXTT4=
PLAYORDER=
